<?xml version="1.0" encoding="UTF-8"?>
<svg xmlns="http://www.w3.org/2000/svg" xmlns:xlink="http://www.w3.org/1999/xlink" width="44pt" height="37pt" viewBox="0 0 44 37" version="1.1">
<g id="surface1">
<path style=" stroke:none;fill-rule:evenodd;fill:rgb(18.431373%,21.568627%,58.039216%);fill-opacity:1;" d="M 42.617188 0 L 42.644531 0 C 43.328125 0 43.625 0.21875 43.640625 0.726562 C 43.644531 0.957031 43.589844 1.128906 43.472656 1.253906 C 43.316406 1.410156 43.042969 1.492188 42.65625 1.496094 C 42.03125 1.496094 41.40625 1.496094 40.785156 1.496094 L 38.160156 1.496094 L 38.160156 3.554688 C 38.160156 4.914062 38.160156 6.234375 38.160156 7.550781 C 38.15625 8.683594 38.039062 8.800781 36.878906 8.800781 C 36.132812 8.800781 35.386719 8.800781 34.640625 8.800781 C 33.894531 8.800781 33.144531 8.800781 32.398438 8.800781 L 29.003906 8.800781 L 29.003906 10.835938 C 29.007812 12.285156 29.007812 13.691406 29 15.101562 C 28.992188 15.933594 28.773438 16.148438 27.933594 16.152344 C 26.476562 16.15625 25.023438 16.15625 23.566406 16.15625 L 19.800781 16.15625 L 19.800781 18.125 C 19.804688 19.53125 19.804688 20.898438 19.800781 22.269531 C 19.796875 23.332031 19.625 23.507812 18.578125 23.507812 C 17.21875 23.511719 15.863281 23.511719 14.503906 23.511719 C 14.164062 23.511719 13.824219 23.511719 13.484375 23.511719 L 10.648438 23.511719 L 10.648438 25.476562 C 10.648438 26.894531 10.652344 28.269531 10.648438 29.640625 C 10.644531 30.664062 10.5 30.808594 9.457031 30.8125 C 8.914062 30.816406 8.367188 30.8125 7.824219 30.8125 C 7.734375 30.8125 7.640625 30.8125 7.550781 30.8125 L 7.550781 30.824219 C 6.566406 30.824219 5.578125 30.824219 4.574219 30.824219 C 4.238281 30.824219 3.898438 30.824219 3.554688 30.824219 L 1.496094 30.824219 L 1.496094 33.449219 C 1.496094 34.070312 1.496094 34.695312 1.496094 35.320312 C 1.492188 35.707031 1.414062 35.980469 1.25 36.136719 C 1.128906 36.253906 0.957031 36.308594 0.726562 36.304688 C 0.21875 36.289062 0 35.992188 0 35.308594 L 0 35.28125 C 0.0078125 34.550781 0.0078125 33.820312 0.00390625 33.089844 C 0.00390625 32.945312 0.00390625 32.800781 0.00390625 32.652344 C 0.00390625 31.894531 0.00390625 31.140625 0.0078125 30.382812 C 0.0078125 30.1875 0.0234375 30.03125 0.0546875 29.902344 L 0 29.859375 C 0.015625 29.851562 0.0351562 29.84375 0.0507812 29.832031 C 0.0585938 29.828125 0.0703125 29.824219 0.078125 29.816406 C 0.195312 29.457031 0.476562 29.34375 1.082031 29.339844 C 2.292969 29.328125 3.503906 29.328125 4.714844 29.332031 L 7.355469 29.335938 L 7.359375 29.367188 L 9.15625 29.367188 L 9.152344 26.714844 C 9.152344 26.605469 9.152344 26.5 9.152344 26.394531 C 9.152344 25.324219 9.152344 24.253906 9.160156 23.183594 C 9.164062 22.203125 9.355469 22.015625 10.371094 22.015625 L 18.304688 22.015625 L 18.332031 21.515625 L 18.332031 21.496094 C 18.34375 21.285156 18.355469 21.097656 18.355469 20.914062 C 18.355469 20.199219 18.355469 19.484375 18.355469 18.769531 C 18.351562 17.792969 18.351562 16.816406 18.355469 15.84375 C 18.359375 14.847656 18.539062 14.671875 19.554688 14.660156 C 20.472656 14.65625 21.386719 14.65625 22.304688 14.660156 L 27.511719 14.660156 L 27.511719 12.757812 C 27.511719 11.304688 27.511719 9.886719 27.515625 8.46875 C 27.515625 7.542969 27.6875 7.367188 28.589844 7.359375 C 29.683594 7.355469 30.777344 7.355469 31.871094 7.355469 C 32.027344 7.355469 32.183594 7.355469 32.339844 7.355469 L 36.667969 7.355469 L 36.667969 4.71875 C 36.667969 4.617188 36.667969 4.515625 36.667969 4.414062 C 36.667969 3.304688 36.664062 2.195312 36.671875 1.085938 C 36.679688 0.234375 36.894531 0.015625 37.714844 0.0078125 C 38.472656 0.00390625 39.230469 0.00390625 39.988281 0.0078125 C 40.136719 0.0078125 40.28125 0.0078125 40.425781 0.0078125 C 41.15625 0.0078125 41.886719 0.0078125 42.617188 0 Z M 17.855469 3.078125 C 17.851562 3.199219 17.851562 3.324219 17.851562 3.445312 C 17.851562 4.3125 17.851562 5.183594 17.859375 6.050781 C 17.863281 6.484375 17.785156 6.773438 17.625 6.9375 C 17.503906 7.054688 17.332031 7.113281 17.085938 7.109375 C 16.726562 7.101562 16.359375 6.972656 16.363281 6.070312 C 16.367188 5.46875 16.363281 4.863281 16.363281 4.203125 L 16.363281 2.765625 L 16.0625 3.046875 C 15.976562 3.121094 15.902344 3.191406 15.828125 3.257812 C 15.785156 3.296875 15.742188 3.335938 15.703125 3.371094 C 15.519531 3.539062 15.375 3.667969 15.238281 3.804688 L 7.15625 11.886719 C 7.097656 11.949219 7.039062 12.015625 6.976562 12.082031 L 6.976562 12.085938 C 6.832031 12.25 6.683594 12.414062 6.539062 12.453125 C 6.195312 12.542969 5.777344 12.515625 5.644531 12.390625 C 5.507812 12.261719 5.453125 11.847656 5.527344 11.5 C 5.554688 11.355469 5.726562 11.203125 5.894531 11.050781 C 5.957031 10.996094 6.019531 10.9375 6.074219 10.882812 C 7.667969 9.285156 9.265625 7.691406 10.859375 6.09375 L 14.277344 2.675781 C 14.40625 2.550781 14.527344 2.417969 14.675781 2.253906 L 14.691406 2.238281 L 15.257812 1.628906 L 14.84375 1.628906 C 14.5 1.628906 14.175781 1.628906 13.867188 1.625 C 13.765625 1.625 13.664062 1.625 13.566406 1.625 C 13.386719 1.625 13.214844 1.621094 13.042969 1.621094 C 12.675781 1.621094 12.324219 1.625 11.964844 1.632812 C 11.535156 1.636719 11.242188 1.566406 11.074219 1.40625 C 10.953125 1.285156 10.894531 1.109375 10.894531 0.875 C 10.898438 0.554688 11.007812 0.132812 11.910156 0.132812 L 11.921875 0.132812 C 12.550781 0.136719 13.179688 0.136719 13.808594 0.132812 C 13.941406 0.132812 14.074219 0.132812 14.210938 0.132812 C 15.078125 0.132812 15.949219 0.132812 16.820312 0.144531 C 17.632812 0.152344 17.84375 0.378906 17.851562 1.238281 C 17.855469 1.851562 17.855469 2.464844 17.855469 3.078125 Z M 17.855469 3.078125 "/>
</g>
</svg>
