<?xml version="1.0" encoding="UTF-8"?>
<svg xmlns="http://www.w3.org/2000/svg" xmlns:xlink="http://www.w3.org/1999/xlink" width="44pt" height="26pt" viewBox="0 0 44 26" version="1.1">
<g id="surface1">
<path style=" stroke:none;fill-rule:evenodd;fill:rgb(19.215686%,22.352941%,58.431373%);fill-opacity:1;" d="M 38.742188 22.765625 C 38.679688 23.039062 38.613281 23.320312 38.542969 23.597656 L 38.4375 24.035156 L 42.710938 24.035156 L 42.601562 23.601562 C 42.527344 23.296875 42.460938 23 42.394531 22.714844 L 42.390625 22.707031 C 42.222656 21.96875 42.058594 21.269531 41.824219 20.589844 C 41.675781 20.160156 41.054688 19.8125 40.617188 19.796875 C 40.226562 19.800781 39.503906 20.070312 39.347656 20.527344 C 39.097656 21.246094 38.929688 21.972656 38.75 22.738281 Z M 39.0625 8.785156 C 39.113281 8.765625 39.164062 8.746094 39.214844 8.722656 L 40.695312 8.132812 L 39.457031 7.609375 C 39.21875 7.507812 39.042969 7.433594 38.863281 7.363281 L 33.867188 5.453125 L 33.199219 5.199219 C 30.113281 4.019531 27.023438 2.839844 23.9375 1.652344 C 22.335938 1.035156 20.765625 1.042969 19.128906 1.671875 C 15.851562 2.9375 12.566406 4.191406 9.28125 5.449219 L 4.300781 7.351562 C 4.105469 7.425781 3.917969 7.507812 3.695312 7.605469 L 3.667969 7.621094 L 2.59375 8.082031 L 3.539062 8.5625 C 3.691406 8.644531 3.808594 8.707031 3.929688 8.753906 L 7.46875 10.105469 C 11.480469 11.644531 15.492188 13.179688 19.515625 14.695312 C 20.179688 14.945312 20.855469 15.074219 21.542969 15.074219 C 22.273438 15.074219 23.011719 14.929688 23.757812 14.644531 L 38.039062 9.191406 C 38.371094 9.066406 38.695312 8.933594 39.0625 8.785156 Z M 42.796875 25.257812 C 41.355469 25.3125 39.855469 25.3125 38.339844 25.253906 C 37.941406 25.238281 37.632812 25.113281 37.449219 24.882812 C 37.265625 24.652344 37.207031 24.324219 37.28125 23.933594 C 37.546875 22.582031 37.878906 21.246094 38.273438 19.957031 C 38.386719 19.589844 38.703125 19.191406 38.976562 19.0625 C 39.9375 18.625 40.007812 17.886719 40 17.167969 C 39.980469 15.554688 39.984375 13.941406 39.988281 12.265625 L 39.988281 9.703125 L 39.507812 9.886719 C 38.296875 10.347656 37.101562 10.804688 35.910156 11.253906 C 35.636719 11.359375 35.367188 11.460938 35.09375 11.566406 C 31.5 12.929688 28.105469 14.214844 24.660156 15.570312 C 22.554688 16.398438 20.582031 16.398438 18.449219 15.566406 C 15.375 14.363281 12.292969 13.1875 9.207031 12.015625 L 9.066406 11.960938 C 6.414062 10.949219 3.757812 9.9375 1.105469 8.910156 C 0.769531 8.78125 0.464844 8.527344 0.136719 8.257812 C 0.09375 8.222656 0.046875 8.183594 0 8.144531 C 0.0507812 8.101562 0.101562 8.058594 0.152344 8.011719 C 0.476562 7.722656 0.785156 7.449219 1.125 7.316406 C 4.980469 5.820312 8.84375 4.347656 12.710938 2.871094 C 13.085938 2.730469 13.460938 2.585938 13.835938 2.441406 C 15.503906 1.804688 17.171875 1.167969 18.839844 0.53125 C 20.664062 -0.171875 22.421875 -0.175781 24.210938 0.511719 C 28.566406 2.179688 32.925781 3.84375 37.285156 5.507812 L 37.289062 5.507812 L 42.121094 7.351562 C 42.171875 7.375 42.230469 7.390625 42.285156 7.402344 C 42.292969 7.40625 42.300781 7.40625 42.308594 7.410156 C 42.34375 7.421875 42.382812 7.429688 42.394531 7.4375 C 42.648438 7.640625 42.898438 7.855469 43.144531 8.070312 L 43.175781 8.101562 C 43.148438 8.132812 43.121094 8.160156 43.097656 8.191406 L 43.085938 8.203125 C 42.886719 8.425781 42.675781 8.652344 42.484375 8.707031 C 41.339844 9.027344 41.117188 9.738281 41.140625 10.703125 C 41.183594 12.484375 41.175781 14.238281 41.167969 16.09375 C 41.164062 16.820312 41.160156 17.554688 41.160156 18.292969 L 41.160156 18.558594 L 41.417969 18.632812 C 42.59375 18.96875 43 19.886719 43.265625 21.261719 C 43.359375 21.742188 43.476562 22.214844 43.59375 22.691406 C 43.679688 23.050781 43.765625 23.40625 43.84375 23.765625 C 43.945312 24.234375 43.890625 24.617188 43.6875 24.878906 C 43.503906 25.109375 43.195312 25.238281 42.796875 25.257812 Z M 13.34375 22.40625 C 12.785156 22.230469 12.191406 21.980469 11.480469 21.625 C 9.875 20.816406 9.203125 19.699219 9.359375 18.101562 C 9.417969 17.503906 9.398438 16.90625 9.382812 16.324219 L 9.382812 16.304688 L 9.371094 15.984375 C 9.363281 15.742188 9.402344 15.574219 9.484375 15.488281 C 9.5625 15.40625 9.714844 15.363281 9.941406 15.355469 C 9.960938 15.355469 9.976562 15.355469 9.992188 15.355469 C 10.214844 15.355469 10.367188 15.398438 10.449219 15.476562 C 10.542969 15.570312 10.585938 15.75 10.582031 16.015625 C 10.578125 16.277344 10.582031 16.542969 10.589844 16.808594 L 10.589844 16.824219 C 10.601562 17.285156 10.609375 17.71875 10.5625 18.152344 C 10.433594 19.34375 10.972656 20.214844 12.082031 20.601562 C 13.757812 21.1875 15.277344 21.699219 16.875 22.015625 C 17.914062 22.21875 18.996094 22.296875 20.25 22.382812 C 20.308594 22.386719 20.363281 22.390625 20.421875 22.394531 C 21 22.433594 21.625 22.480469 22.316406 22.542969 L 22.363281 22.546875 L 23.933594 22.273438 L 23.988281 22.261719 C 25.613281 21.980469 27.453125 21.664062 29.316406 21.296875 C 29.835938 21.199219 30.3125 20.964844 30.773438 20.738281 C 30.894531 20.679688 31.019531 20.621094 31.140625 20.5625 C 32.191406 20.074219 32.664062 19.269531 32.554688 18.171875 C 32.507812 17.707031 32.519531 17.238281 32.53125 16.738281 C 32.539062 16.472656 32.542969 16.203125 32.539062 15.9375 C 32.539062 15.714844 32.578125 15.5625 32.65625 15.484375 C 32.742188 15.398438 32.890625 15.355469 33.164062 15.359375 C 33.398438 15.359375 33.558594 15.402344 33.640625 15.484375 C 33.722656 15.570312 33.761719 15.730469 33.757812 15.964844 L 33.75 16.402344 C 33.738281 17.011719 33.722656 17.640625 33.765625 18.261719 C 33.875 19.777344 33.222656 20.898438 31.933594 21.417969 C 30.21875 22.105469 28.191406 22.855469 26.167969 23.191406 C 21.695312 23.933594 17.382812 23.671875 13.34375 22.40625 Z M 13.34375 22.40625 "/>
</g>
</svg>
