<?xml version="1.0" encoding="UTF-8"?>
<svg xmlns="http://www.w3.org/2000/svg" xmlns:xlink="http://www.w3.org/1999/xlink" width="44pt" height="43pt" viewBox="0 0 44 43" version="1.1">
<g id="surface1">
<path style=" stroke:none;fill-rule:evenodd;fill:rgb(18.431373%,21.568627%,58.039216%);fill-opacity:1;" d="M 41.503906 21.617188 C 41.429688 32.582031 32.382812 41.574219 21.488281 41.511719 C 10.390625 41.445312 1.476562 32.4375 1.578125 21.390625 C 1.675781 10.441406 10.761719 1.429688 21.546875 1.582031 C 32.660156 1.738281 41.574219 10.691406 41.503906 21.617188 Z M 23.980469 0.199219 C 23.582031 0.136719 23.183594 0.0703125 22.789062 0 L 20.210938 0 C 19.996094 0.0390625 19.777344 0.0742188 19.558594 0.113281 C 19.078125 0.195312 18.597656 0.28125 18.117188 0.351562 C 6.3125 2.152344 -1.847656 13.667969 0.363281 25.40625 C 2.527344 36.921875 13.289062 44.527344 24.898438 42.742188 C 36.371094 40.976562 44.441406 30.121094 42.824219 18.632812 C 41.59375 9.867188 35.171875 2.761719 26.566406 0.6875 C 25.714844 0.484375 24.847656 0.34375 23.980469 0.199219 Z M 22.253906 15.820312 C 22.253906 15.128906 22.257812 14.4375 22.257812 13.746094 L 22.265625 13.746094 C 22.265625 13.316406 22.265625 12.886719 22.265625 12.457031 C 22.265625 11.171875 22.265625 9.882812 22.261719 8.597656 C 22.261719 8.363281 22.265625 8.128906 22.265625 7.894531 C 22.273438 7.183594 22.28125 6.472656 22.214844 5.765625 C 22.191406 5.503906 21.78125 5.089844 21.542969 5.085938 C 21.289062 5.085938 20.957031 5.441406 20.796875 5.722656 C 20.707031 5.875 20.726562 6.09375 20.746094 6.308594 C 20.75 6.394531 20.757812 6.484375 20.757812 6.566406 C 20.757812 8.015625 20.761719 9.464844 20.761719 10.914062 C 20.761719 13.816406 20.761719 16.714844 20.761719 19.613281 C 20.761719 20.792969 20.757812 20.796875 19.609375 20.800781 C 16.203125 20.800781 12.796875 20.804688 9.386719 20.796875 C 8.855469 20.796875 8.378906 20.867188 8.367188 21.535156 C 8.355469 22.195312 8.8125 22.296875 9.359375 22.296875 C 13.3125 22.289062 17.261719 22.28125 21.214844 22.300781 C 22 22.304688 22.273438 21.972656 22.265625 21.214844 C 22.25 19.417969 22.25 17.621094 22.253906 15.820312 Z M 22.253906 15.820312 "/>
</g>
</svg>
