<?xml version="1.0" encoding="UTF-8"?>
<svg xmlns="http://www.w3.org/2000/svg" xmlns:xlink="http://www.w3.org/1999/xlink" width="44pt" height="53pt" viewBox="0 0 44 53" version="1.1">
<g id="surface1">
<path style=" stroke:none;fill-rule:evenodd;fill:rgb(18.431373%,21.568627%,58.039216%);fill-opacity:1;" d="M 6.035156 39.070312 L 5.871094 39.351562 C 5.121094 40.632812 4.371094 41.914062 3.625 43.195312 C 3.496094 43.410156 3.390625 43.636719 3.257812 43.917969 L 3.234375 43.972656 C 3.15625 44.132812 3.070312 44.316406 2.96875 44.527344 L 2.828125 44.816406 L 4.503906 44.398438 C 5.425781 44.171875 6.261719 43.964844 7.097656 43.75 C 8.851562 43.304688 9.003906 43.394531 9.484375 45.152344 C 9.679688 45.859375 9.878906 46.570312 10.078125 47.277344 C 10.109375 47.398438 10.144531 47.515625 10.175781 47.636719 L 10.5 48.785156 L 11.066406 48.789062 L 17.792969 37.25 L 19.394531 34.507812 L 19.121094 34.253906 C 17.03125 32.320312 15.050781 30.492188 11.894531 30.9375 C 11.113281 31.046875 10.652344 31.144531 10.246094 31.84375 C 8.855469 34.257812 7.425781 36.699219 6.035156 39.070312 Z M 7.195312 20.207031 C 8.671875 21.5625 9.324219 23.121094 9.246094 25.109375 C 9.195312 26.410156 9.570312 27.496094 10.335938 28.246094 C 11.105469 29 12.234375 29.363281 13.566406 29.316406 C 13.679688 29.3125 13.789062 29.308594 13.894531 29.308594 C 15.730469 29.308594 17.253906 29.980469 18.53125 31.359375 C 19.402344 32.292969 20.410156 32.785156 21.453125 32.789062 C 22.519531 32.789062 23.566406 32.269531 24.476562 31.296875 C 25.71875 29.964844 27.191406 29.316406 28.972656 29.316406 C 29.042969 29.316406 29.113281 29.316406 29.179688 29.320312 C 30.652344 29.367188 31.769531 28.992188 32.542969 28.230469 C 33.3125 27.472656 33.679688 26.367188 33.640625 24.945312 C 33.585938 23.085938 34.234375 21.566406 35.625 20.296875 C 36.632812 19.378906 37.164062 18.335938 37.160156 17.292969 C 37.15625 16.257812 36.632812 15.234375 35.640625 14.339844 C 34.234375 13.066406 33.578125 11.550781 33.636719 9.703125 C 33.679688 8.238281 33.316406 7.113281 32.550781 6.359375 C 31.796875 5.617188 30.695312 5.269531 29.238281 5.308594 C 29.15625 5.3125 29.074219 5.3125 28.996094 5.3125 C 27.210938 5.3125 25.738281 4.683594 24.503906 3.390625 C 23.503906 2.34375 22.464844 1.808594 21.421875 1.808594 L 21.417969 1.808594 C 20.378906 1.808594 19.351562 2.332031 18.363281 3.367188 C 17.015625 4.769531 15.523438 5.40625 13.789062 5.296875 L 13.707031 5.296875 C 12.175781 5.296875 11.027344 5.671875 10.289062 6.417969 C 9.558594 7.15625 9.214844 8.265625 9.261719 9.722656 C 9.324219 11.558594 8.679688 13.027344 7.234375 14.347656 C 6.253906 15.25 5.734375 16.273438 5.734375 17.308594 C 5.734375 18.332031 6.238281 19.332031 7.195312 20.207031 Z M 39.707031 44.308594 C 39.714844 44.191406 39.71875 44.101562 39.671875 44.019531 C 36.828125 39.113281 34.527344 35.152344 32.429688 31.566406 C 32.414062 31.539062 32.042969 30.894531 31.699219 30.945312 C 31.167969 31.039062 30.597656 31.039062 30.054688 31.039062 C 30.023438 31.039062 29.992188 31.039062 29.964844 31.039062 L 29.90625 31.039062 C 28.667969 31.039062 27.371094 31.042969 26.28125 32.03125 C 25.71875 32.546875 25.144531 33.054688 24.546875 33.585938 L 23.472656 34.539062 L 32.246094 49.441406 L 32.757812 47.601562 L 32.804688 47.441406 C 33.027344 46.644531 33.21875 45.949219 33.40625 45.253906 C 33.652344 44.335938 33.824219 43.761719 34.148438 43.578125 C 34.464844 43.398438 35.042969 43.53125 35.953125 43.773438 C 36.6875 43.972656 37.429688 44.160156 38.171875 44.347656 C 38.265625 44.371094 38.355469 44.394531 38.445312 44.417969 L 39.699219 44.734375 L 39.699219 44.542969 C 39.699219 44.449219 39.703125 44.375 39.707031 44.316406 Z M 0.0898438 46.78125 C -0.0664062 46.566406 -0.0117188 45.9375 0.203125 45.558594 C 1.238281 43.707031 2.335938 41.847656 3.398438 40.046875 L 3.496094 39.878906 L 4.472656 38.222656 C 5.183594 37.011719 5.894531 35.800781 6.613281 34.582031 C 7.003906 33.917969 7.394531 33.253906 7.789062 32.582031 L 9.40625 29.832031 L 9.304688 29.75 C 7.65625 28.433594 7.429688 26.578125 7.4375 24.769531 C 7.4375 23.507812 6.933594 22.460938 5.839844 21.472656 C 4.589844 20.339844 3.898438 18.875 3.898438 17.351562 C 3.894531 15.832031 4.574219 14.367188 5.820312 13.230469 C 7.046875 12.109375 7.550781 10.882812 7.453125 9.25 C 7.359375 7.734375 7.929688 6.234375 9.011719 5.144531 C 10.101562 4.042969 11.628906 3.441406 13.1875 3.5 C 14.933594 3.554688 16.214844 3.035156 17.453125 1.738281 C 18.527344 0.617188 19.945312 0 21.445312 0 C 21.449219 0 21.453125 0 21.457031 0 C 21.460938 0 21.46875 0 21.472656 0 C 22.996094 0.0078125 24.429688 0.644531 25.511719 1.796875 C 26.609375 2.964844 27.839844 3.492188 29.480469 3.492188 C 29.539062 3.492188 29.601562 3.492188 29.660156 3.492188 C 31.292969 3.449219 32.796875 4.03125 33.867188 5.121094 C 34.972656 6.242188 35.527344 7.789062 35.433594 9.480469 C 35.359375 10.867188 35.816406 11.980469 36.878906 12.980469 C 38.273438 14.300781 39.007812 15.800781 38.996094 17.320312 C 38.988281 18.835938 38.238281 20.320312 36.828125 21.617188 C 35.773438 22.589844 35.5 23.730469 35.417969 25.144531 C 35.273438 27.695312 35.273438 27.695312 33.660156 29.777344 L 33.5625 29.902344 L 35.65625 33.472656 L 35.800781 33.71875 C 37.976562 37.429688 40.222656 41.261719 42.402344 45.046875 C 42.601562 45.394531 42.664062 45.824219 42.734375 46.277344 C 42.738281 46.296875 42.742188 46.320312 42.746094 46.339844 C 42.765625 46.480469 42.785156 46.617188 42.8125 46.75 C 42.660156 46.769531 42.511719 46.792969 42.359375 46.820312 C 42.339844 46.824219 42.320312 46.828125 42.300781 46.832031 C 41.808594 46.914062 41.34375 46.992188 40.917969 46.90625 C 39.644531 46.648438 38.390625 46.316406 37.066406 45.964844 L 37.023438 45.953125 C 36.484375 45.808594 35.9375 45.660156 35.375 45.515625 L 35.230469 45.480469 L 35.1875 45.625 C 35.035156 46.164062 34.890625 46.695312 34.75 47.222656 L 34.730469 47.285156 C 34.359375 48.648438 34.007812 49.941406 33.59375 51.230469 C 33.476562 51.59375 33.222656 51.921875 32.953125 52.265625 C 32.863281 52.378906 32.773438 52.5 32.6875 52.617188 C 32.5625 52.523438 32.433594 52.4375 32.304688 52.347656 L 32.285156 52.335938 C 31.898438 52.074219 31.535156 51.828125 31.335938 51.496094 C 29.144531 47.828125 26.953125 44.082031 24.832031 40.457031 C 24.058594 39.132812 23.285156 37.8125 22.511719 36.488281 C 22.34375 36.207031 22.164062 35.929688 21.945312 35.597656 C 21.898438 35.523438 21.847656 35.449219 21.796875 35.367188 C 21.726562 35.257812 21.648438 35.140625 21.570312 35.015625 L 21.4375 34.8125 L 21.308594 35.015625 C 21.15625 35.265625 21.019531 35.484375 20.886719 35.691406 L 20.851562 35.75 C 20.628906 36.101562 20.433594 36.410156 20.25 36.722656 C 19.734375 37.605469 19.21875 38.484375 18.703125 39.367188 C 18.46875 39.761719 18.238281 40.15625 18.007812 40.550781 C 15.90625 44.140625 13.730469 47.851562 11.558594 51.480469 C 11.359375 51.820312 11 52.074219 10.617188 52.34375 C 10.484375 52.433594 10.351562 52.53125 10.222656 52.628906 C 10.140625 52.511719 10.054688 52.398438 9.964844 52.285156 L 9.9375 52.246094 C 9.652344 51.875 9.382812 51.523438 9.257812 51.132812 C 8.855469 49.902344 8.519531 48.640625 8.164062 47.308594 C 8.019531 46.761719 7.871094 46.203125 7.710938 45.625 L 7.671875 45.480469 L 6.425781 45.804688 C 5.15625 46.140625 3.921875 46.460938 2.6875 46.78125 C 2.5625 46.8125 2.4375 46.851562 2.3125 46.890625 L 2.292969 46.894531 L 2.285156 46.898438 C 1.960938 46.996094 1.65625 47.089844 1.355469 47.089844 L 1.339844 47.089844 C 0.695312 47.085938 0.226562 46.96875 0.0898438 46.78125 Z M 21.46875 9.492188 L 21.4375 9.492188 C 17.082031 9.492188 13.523438 12.933594 13.507812 17.179688 C 13.484375 21.597656 16.933594 25.101562 21.359375 25.15625 C 21.378906 25.15625 21.394531 25.160156 21.410156 25.160156 C 21.429688 25.160156 21.445312 25.160156 21.460938 25.160156 C 23.53125 25.15625 25.492188 24.355469 27.003906 22.894531 C 28.539062 21.40625 29.390625 19.4375 29.398438 17.351562 C 29.40625 15.238281 28.59375 13.261719 27.109375 11.789062 C 25.621094 10.316406 23.621094 9.5 21.46875 9.492188 Z M 21.515625 26.972656 L 21.472656 26.972656 C 16.070312 26.945312 11.664062 22.617188 11.648438 17.324219 C 11.640625 14.773438 12.660156 12.355469 14.515625 10.519531 C 16.375 8.679688 18.832031 7.664062 21.425781 7.664062 L 21.433594 7.664062 C 26.816406 7.664062 31.222656 11.976562 31.257812 17.285156 C 31.273438 19.78125 30.214844 22.269531 28.347656 24.109375 C 26.503906 25.929688 24.015625 26.972656 21.515625 26.972656 Z M 21.515625 26.972656 "/>
</g>
</svg>
