<?xml version="1.0" encoding="utf-8"?><svg viewBox="0 0 44 53" xmlns="http://www.w3.org/2000/svg" xmlns:xlink="http://www.w3.org/1999/xlink"><style>:root>svg{display:none}:root>svg:target{display:block}</style><svg viewBox="0 0 19 10" id="angle"><path d="M17.858 1l-8 8-8-8" stroke-width="2" stroke-linecap="round" stroke-linejoin="round"/></svg><svg viewBox="0 0 44 37" id="arrow-up"><path d="M42.617 0h.028c.683 0 .98.219.996.727.004.23-.051.402-.168.527-.157.156-.43.238-.817.242H38.16v6.055c-.004 1.133-.12 1.25-1.281 1.25h-7.875v2.035c.004 1.45.004 2.855-.004 4.266-.008.832-.227 1.046-1.066 1.05-1.457.004-2.91.004-4.368.004h-3.765v1.969c.004 1.406.004 2.773 0 4.145-.004 1.062-.176 1.238-1.223 1.238-1.36.004-2.715.004-4.074.004h-3.856v1.965c0 1.418.004 2.793 0 4.164-.003 1.023-.148 1.168-1.191 1.172-.543.003-1.09 0-1.633 0h-.273v.011H1.496v4.496c-.004.387-.082.66-.246.817-.121.117-.293.172-.523.168-.508-.016-.727-.313-.727-.996v-.028c.008-.73.008-1.46.004-2.191v-.438c0-.757 0-1.511.004-2.27 0-.195.015-.35.047-.48L0 29.86c.016-.007.035-.015.05-.027.009-.004.02-.008.028-.016.117-.359.399-.472 1.004-.476 1.211-.012 2.422-.012 3.633-.008l2.64.004.004.031h1.797l-.004-2.652v-.32c0-1.07 0-2.141.008-3.211.004-.98.195-1.168 1.211-1.168h7.934l.027-.5v-.02c.012-.21.023-.398.023-.582V18.77c-.003-.977-.003-1.954 0-2.926.004-.996.184-1.172 1.2-1.184.918-.004 1.832-.004 2.75 0h5.207v-1.902c0-1.453 0-2.871.004-4.29 0-.925.172-1.1 1.074-1.109 1.094-.004 2.187-.004 3.281-.004H36.668V4.72v-.305c0-1.11-.004-2.219.004-3.328.008-.852.223-1.07 1.043-1.078.758-.004 1.515-.004 2.273 0h.438c.73 0 1.46 0 2.191-.008zM17.855 3.078c-.003.121-.003.246-.003.367 0 .868 0 1.739.007 2.606.004.433-.074.722-.234.886-.121.118-.293.176-.54.172-.358-.007-.726-.136-.722-1.039.004-.601 0-1.207 0-1.867V2.766l-.3.28c-.086.075-.16.145-.235.212l-.125.113c-.183.168-.328.297-.465.434l-8.082 8.082c-.058.062-.117.129-.18.195v.004c-.144.164-.292.328-.437.367-.344.09-.762.063-.894-.062-.137-.13-.192-.543-.118-.891.028-.145.2-.297.368-.45a3.78 3.78 0 00.18-.167c1.593-1.598 3.19-3.192 4.784-4.79l3.418-3.417c.13-.125.25-.258.399-.422l.015-.016.567-.61h-.414c-.344 0-.668 0-.977-.003h-.3c-.18 0-.352-.004-.524-.004-.367 0-.719.004-1.078.012-.43.004-.723-.067-.89-.227-.122-.12-.18-.297-.18-.531.003-.32.113-.742 1.015-.742h.012c.629.004 1.258.004 1.887 0h.402c.867 0 1.738 0 2.61.012.812.007 1.023.234 1.03 1.093.004.614.004 1.227.004 1.84zm0 0" fill-rule="evenodd"/></svg><svg viewBox="0 0 44 26" id="cap"><path d="M38.742 22.766c-.062.273-.129.554-.199.832l-.105.437h4.273l-.11-.433c-.074-.305-.14-.602-.206-.887l-.004-.008c-.168-.738-.332-1.437-.567-2.117-.148-.43-.77-.777-1.207-.793-.39.004-1.113.273-1.27.73-.25.72-.417 1.446-.597 2.211zm.32-13.98c.051-.02.102-.04.153-.063l1.48-.59-1.238-.524a21.276 21.276 0 00-.594-.246l-4.996-1.91L33.2 5.2c-3.086-1.18-6.176-2.36-9.261-3.547-1.602-.617-3.172-.609-4.81.02-3.276 1.266-6.562 2.52-9.847 3.777l-4.98 1.903c-.196.074-.383.156-.606.253l-.027.016-1.074.461.945.48c.152.083.27.145.39.192l3.54 1.351c4.011 1.54 8.023 3.075 12.047 4.59.664.25 1.34.38 2.027.38.73 0 1.469-.145 2.215-.43L38.039 9.19c.332-.125.656-.257 1.023-.406zm3.735 16.472a58.5 58.5 0 01-4.457-.004c-.399-.016-.707-.14-.89-.371-.184-.23-.243-.559-.169-.95.266-1.351.598-2.687.992-3.976.114-.367.43-.766.704-.895.96-.437 1.03-1.175 1.023-1.894-.02-1.613-.016-3.227-.012-4.902V9.703l-.48.184c-1.211.46-2.406.918-3.598 1.367l-.816.312C31.5 12.93 28.105 14.215 24.66 15.57c-2.105.828-4.078.828-6.21-.004a979.072 979.072 0 00-9.243-3.55l-.14-.055c-2.653-1.012-5.31-2.024-7.962-3.05-.335-.13-.64-.384-.968-.653L0 8.145c.05-.043.102-.086.152-.133.325-.29.633-.563.973-.696C4.98 5.82 8.844 4.348 12.711 2.871c.375-.14.75-.285 1.125-.43L18.84.531c1.824-.703 3.582-.707 5.37-.02 4.356 1.669 8.716 3.333 13.075 4.997h.004l4.832 1.844c.05.023.11.039.164.05.008.004.016.004.024.008.035.012.074.02.086.027.253.204.503.418.75.633l.03.032c-.027.03-.054.058-.077.09l-.012.011c-.2.223-.41.45-.602.504-1.144.32-1.367 1.031-1.343 1.996.043 1.781.035 3.535.027 5.39-.004.727-.008 1.462-.008 2.2v.266l.258.074c1.176.336 1.582 1.254 1.848 2.629.093.48.21.953.328 1.43.086.359.172.714.25 1.074.101.468.047.851-.157 1.113-.183.23-.492.36-.89.379zm-29.453-2.852c-.559-.176-1.153-.426-1.864-.781-1.605-.809-2.277-1.926-2.12-3.523.058-.598.038-1.196.023-1.778v-.02l-.012-.32c-.008-.242.031-.41.113-.496.079-.082.23-.125.457-.133h.051c.223 0 .375.043.457.122.094.093.137.273.133.539-.004.261 0 .527.008.793v.015c.012.461.02.895-.027 1.328-.13 1.192.41 2.063 1.519 2.45 1.676.585 3.195 1.097 4.793 1.414 1.04.203 2.121.28 3.375.367l.172.012c.578.039 1.203.085 1.894.148l.047.004 1.57-.274.055-.011c1.625-.282 3.465-.598 5.328-.965.52-.098.997-.332 1.457-.559l.368-.175c1.05-.489 1.523-1.293 1.414-2.391-.047-.465-.035-.934-.024-1.434.008-.265.012-.535.008-.8 0-.223.04-.376.117-.454.086-.086.235-.129.508-.125.234 0 .395.043.477.125.082.086.12.246.117.48l-.008.438c-.012.61-.027 1.239.016 1.86.109 1.515-.543 2.636-1.832 3.156-1.715.687-3.743 1.437-5.766 1.773-4.473.743-8.785.48-12.824-.785zm0 0" fill-rule="evenodd"/></svg><svg viewBox="0 0 44 43" id="clock"><path d="M41.504 21.617c-.074 10.965-9.121 19.957-20.016 19.895-11.097-.067-20.011-9.075-19.91-20.121.098-10.95 9.184-19.961 19.969-19.809 11.113.156 20.027 9.11 19.957 20.035zM23.98.2A58.253 58.253 0 0122.79 0h-2.58c-.214.04-.433.074-.651.113-.48.082-.961.168-1.442.239C6.312 2.152-1.848 13.668.363 25.406 2.527 36.922 13.29 44.527 24.898 42.742c11.473-1.765 19.543-12.62 17.926-24.11A21.494 21.494 0 0026.566.688C25.715.484 24.848.344 23.98.2zM22.254 15.82c0-.691.004-1.383.004-2.074h.008v-1.289c0-1.285 0-2.574-.004-3.86 0-.234.004-.468.004-.702.007-.711.015-1.422-.051-2.13-.024-.261-.434-.675-.672-.68-.254 0-.586.356-.746.638-.09.152-.07.37-.05.586.003.086.01.175.01.257 0 1.45.005 2.899.005 4.348v8.7c0 1.179-.004 1.183-1.153 1.187-3.406 0-6.812.004-10.222-.004-.532 0-1.008.07-1.02.738-.012.66.445.762.992.762 3.954-.008 7.903-.016 11.856.004.785.004 1.058-.328 1.05-1.086a496.454 496.454 0 01-.011-5.395zm0 0" fill-rule="evenodd"/></svg><svg viewBox="0 0 44 53" id="medal"><path d="M6.035 39.07l-.164.282c-.75 1.28-1.5 2.562-2.246 3.843-.129.215-.234.442-.367.723l-.024.055c-.078.16-.164.343-.265.554l-.14.29 1.675-.419c.922-.226 1.758-.433 2.594-.648 1.754-.445 1.906-.355 2.386 1.402.196.707.395 1.418.594 2.125.031.121.067.239.098.36l.324 1.148.566.004 6.727-11.539 1.602-2.742-.274-.254c-2.09-1.934-4.07-3.762-7.226-3.316-.782.109-1.243.207-1.649.906-1.39 2.414-2.82 4.855-4.21 7.226zm1.16-18.863c1.477 1.355 2.13 2.914 2.051 4.902-.05 1.301.324 2.387 1.09 3.137.77.754 1.898 1.117 3.23 1.07.114-.003.223-.007.329-.007 1.835 0 3.359.671 4.636 2.05.871.934 1.88 1.426 2.922 1.43 1.067 0 2.113-.52 3.024-1.492 1.242-1.332 2.714-1.98 4.496-1.98.07 0 .14 0 .207.003 1.472.047 2.59-.328 3.363-1.09.77-.757 1.137-1.863 1.098-3.285-.055-1.86.593-3.379 1.984-4.648 1.008-.918 1.54-1.961 1.535-3.004-.004-1.035-.527-2.059-1.52-2.953-1.406-1.274-2.062-2.79-2.003-4.637.043-1.465-.32-2.59-1.086-3.344-.754-.742-1.856-1.09-3.313-1.05-.082.003-.164.003-.242.003-1.785 0-3.258-.628-4.492-1.921-1-1.047-2.04-1.582-3.082-1.582h-.004c-1.04 0-2.066.523-3.055 1.558-1.347 1.403-2.84 2.04-4.574 1.93h-.082c-1.531 0-2.68.375-3.418 1.121-.73.738-1.074 1.848-1.027 3.305.062 1.836-.582 3.304-2.028 4.625-.98.902-1.5 1.925-1.5 2.96 0 1.024.504 2.024 1.461 2.899zm32.512 24.102c.008-.118.012-.207-.035-.29a3657.835 3657.835 0 00-7.242-12.453c-.016-.027-.387-.671-.73-.62-.532.093-1.102.093-1.645.093h-.149c-1.238 0-2.535.004-3.625.992-.562.516-1.136 1.024-1.734 1.555l-1.074.953 8.773 14.902.512-1.84.047-.16c.222-.796.414-1.492.601-2.187.246-.918.418-1.492.742-1.676.317-.18.895-.047 1.805.195.734.2 1.477.387 2.219.575.094.023.183.047.273.07l1.254.316v-.191c0-.094.004-.168.008-.227zM.09 46.78c-.156-.215-.102-.843.113-1.222 1.035-1.852 2.133-3.711 3.195-5.512l.098-.168.977-1.656c.71-1.211 1.422-2.422 2.14-3.641l1.176-2 1.617-2.75-.101-.082c-1.649-1.316-1.875-3.172-1.867-4.98 0-1.262-.504-2.31-1.598-3.297-1.25-1.133-1.942-2.598-1.942-4.121-.003-1.52.676-2.985 1.922-4.122 1.227-1.12 1.73-2.347 1.633-3.98a5.375 5.375 0 011.559-4.105A5.6 5.6 0 0113.187 3.5c1.747.055 3.028-.465 4.266-1.762C18.527.618 19.945 0 21.445 0h.028c1.523.008 2.957.645 4.039 1.797 1.097 1.168 2.328 1.695 3.968 1.695h.18c1.633-.043 3.137.54 4.207 1.63 1.106 1.12 1.66 2.667 1.567 4.358-.075 1.387.382 2.5 1.445 3.5 1.394 1.32 2.129 2.82 2.117 4.34-.008 1.516-.758 3-2.168 4.297-1.055.973-1.328 2.113-1.41 3.528-.145 2.55-.145 2.55-1.758 4.632l-.097.125 2.093 3.57.145.247c2.176 3.71 4.422 7.543 6.601 11.328.2.348.262.777.332 1.23l.012.063c.02.14.04.277.066.41-.152.02-.3.043-.453.07l-.058.012c-.492.082-.957.16-1.383.074-1.273-.258-2.527-.59-3.852-.941l-.043-.012c-.539-.144-1.086-.293-1.648-.437l-.145-.036-.042.145c-.153.54-.297 1.07-.438 1.598l-.02.062c-.37 1.363-.722 2.656-1.136 3.945-.117.364-.371.692-.64 1.036-.09.113-.18.234-.267.351-.124-.094-.253-.18-.382-.27l-.02-.011c-.387-.262-.75-.508-.95-.84-2.19-3.668-4.382-7.414-6.503-11.039l-2.32-3.969a23.75 23.75 0 00-.567-.89c-.047-.075-.097-.149-.148-.23-.07-.11-.149-.227-.227-.352l-.133-.203-.128.203c-.153.25-.29.468-.422.675l-.035.059c-.223.352-.418.66-.602.973l-1.547 2.644c-.234.395-.465.79-.695 1.184-2.102 3.59-4.278 7.3-6.45 10.93-.199.34-.558.593-.94.863-.134.09-.266.187-.395.285a7.163 7.163 0 00-.258-.344l-.027-.039c-.286-.371-.555-.723-.68-1.113-.403-1.23-.738-2.492-1.094-3.824a145.42 145.42 0 00-.453-1.684l-.04-.145-1.245.325c-1.27.336-2.504.656-3.739.976-.124.032-.25.07-.374.11l-.02.004-.008.003c-.324.098-.629.192-.93.192H1.34c-.645-.004-1.113-.121-1.25-.309zM21.469 9.492h-.032c-4.355 0-7.914 3.442-7.93 7.688-.023 4.418 3.427 7.922 7.852 7.976.02 0 .036.004.051.004h.05c2.071-.004 4.032-.805 5.544-2.265 1.535-1.489 2.387-3.457 2.394-5.543a7.732 7.732 0 00-2.289-5.563c-1.488-1.473-3.488-2.289-5.64-2.297zm.047 17.48h-.043c-5.403-.027-9.809-4.355-9.825-9.648-.007-2.55 1.012-4.969 2.868-6.804a9.779 9.779 0 016.91-2.856h.008c5.382 0 9.789 4.313 9.824 9.621.015 2.496-1.043 4.985-2.91 6.824-1.844 1.82-4.332 2.864-6.832 2.864zm0 0" fill-rule="evenodd"/></svg><svg viewBox="0 0 13 16" id="play"><path d="M0 0v16l13.203-8zm0 0" fill-rule="evenodd"/></svg></svg>