<svg width="24" height="24" viewBox="0 0 24 24" fill="none" xmlns="http://www.w3.org/2000/svg">
<path fill-rule="evenodd" clip-rule="evenodd" d="M12.45 4.52349H9.79101C9.61301 4.52349 9.48701 4.50749 9.41001 4.42949C9.34901 4.36849 9.32001 4.26749 9.32001 4.11949C9.32201 3.75649 9.49601 3.73549 9.80601 3.72849C10.883 3.70449 10.906 3.68449 11.054 2.63849C11.106 2.27949 11.317 2.06549 11.681 2.00249C12.103 1.92749 12.459 2.08349 12.603 2.40549C12.648 2.50549 12.677 2.62349 12.687 2.75149C12.765 3.67249 12.787 3.72949 13.628 3.72949C13.646 3.72949 13.6645 3.72925 13.6835 3.72901L13.6835 3.72901C13.7035 3.72875 13.724 3.72849 13.745 3.72849H13.814L13.8469 3.72871C13.868 3.72894 13.8885 3.72915 13.909 3.72849C14.135 3.72149 14.262 3.75249 14.341 3.83249C14.406 3.89649 14.436 3.99649 14.434 4.13749C14.428 4.45949 14.246 4.52449 13.934 4.52449H13.923C13.6371 4.52349 13.3511 4.52349 13.0652 4.52349H13.065H12.45ZM9.77301 5.48849C10.297 5.48949 10.822 5.48949 11.346 5.48949C12.214 5.48949 13.082 5.48849 13.95 5.48649C14.071 5.48649 14.198 5.47249 14.325 5.44249C14.944 5.29849 15.449 4.64749 15.405 4.04749C15.359 3.41749 14.775 2.83649 14.13 2.78149C14.0239 2.77311 13.9187 2.76734 13.8168 2.76174L13.794 2.76049L13.697 2.75549C13.352 1.64849 12.683 1.00049 11.891 1.00049C11.863 1.00049 11.833 1.00049 11.804 1.00249C10.939 1.05349 10.267 1.72549 10.046 2.75849L10.0353 2.75893C9.99015 2.76077 9.94651 2.76256 9.90201 2.76349C9.77501 2.76749 9.65401 2.77149 9.53301 2.79049C8.99001 2.87149 8.61101 3.19349 8.37301 3.77349C8.17001 4.27049 8.40601 4.65849 8.69001 5.00349C8.95501 5.32449 9.31901 5.48849 9.77301 5.48849ZM19.8396 8.83649V11.1285C19.8386 13.3195 19.8376 15.5855 19.8456 17.8145C19.8466 18.1665 19.7386 18.4235 19.4846 18.6725C18.6375 19.5008 17.7834 20.3517 16.9577 21.1744L16.9575 21.1746L16.957 21.1752L16.9568 21.1754L16.9406 21.1915L16.0526 22.0765L16.0396 22.0895H4.25961L4.24961 22.0595C4.224 21.9886 4.19159 21.9166 4.16003 21.8466L4.15861 21.8435C4.08561 21.6825 4.01061 21.5165 4.01061 21.3475C3.99861 16.4465 3.99961 11.4635 4.00061 6.64449V4.41649C4.00061 3.72149 4.09761 3.62549 4.80261 3.62449L5.08391 3.62536H5.08395H5.08398H5.08402H5.08406C5.36784 3.6263 5.65259 3.62724 5.93961 3.62649C6.25661 3.62649 6.57661 3.62549 6.89361 3.62049H6.91161C7.30361 3.62049 7.50561 3.78149 7.51061 4.09849C7.51361 4.24149 7.47361 4.35549 7.39261 4.43849C7.29061 4.54249 7.12661 4.59449 6.90461 4.59449C6.27861 4.59349 5.65361 4.59349 5.00161 4.59349V21.1175L7.58861 21.1165C10.0876 21.1155 12.6696 21.1145 15.2096 21.1245H15.2166C15.5426 21.1245 15.7696 21.0275 15.9996 20.7915C16.4176 20.3594 16.8497 19.9273 17.2701 19.507L17.2702 19.5069L17.3486 19.4285C17.7696 19.0085 18.2046 18.5745 18.6256 18.1415C18.7356 18.0275 18.8556 17.8255 18.8556 17.6495C18.8666 13.8105 18.8646 9.90749 18.8626 6.13149L18.8616 4.73549C18.8616 4.71549 18.8576 4.69249 18.8506 4.65449L18.8483 4.64246C18.8457 4.6288 18.8427 4.61281 18.8396 4.59449H18.3986C17.9703 4.59549 17.538 4.59449 17.1047 4.59349H17.1046H17.1045H17.1044H17.1043L17.1026 4.59349H17.0996C17.0695 4.59349 17.0384 4.5951 17.0065 4.59675L16.9716 4.59849C16.8396 4.60749 16.7006 4.61549 16.5976 4.55349C16.4516 4.46549 16.2396 4.25649 16.2476 4.08549C16.2556 3.92849 16.4846 3.65349 16.6496 3.64849C17.4966 3.61449 18.3956 3.61149 19.3976 3.63749C19.6936 3.64549 19.8416 3.84949 19.8406 4.24449C19.8376 5.28549 19.8386 6.32649 19.8396 7.36649V8.83649ZM8.11391 16.8414H8.09991C7.88591 16.8414 7.73391 16.7944 7.63691 16.6974C7.55491 16.6154 7.51391 16.4994 7.51491 16.3504C7.51891 15.8664 7.97491 15.8664 8.12491 15.8664C9.18791 15.8674 10.2489 15.8674 11.3119 15.8664H11.3149C11.5659 15.8664 11.7309 15.9154 11.8349 16.0204C11.9159 16.1024 11.9549 16.2174 11.9539 16.3624C11.9519 16.5074 11.9089 16.6204 11.8279 16.6994C11.6999 16.8234 11.4929 16.8424 11.3359 16.8424H11.2989C10.9849 16.837 10.6661 16.838 10.3546 16.839L10.2419 16.8394C10.0779 16.8394 9.91191 16.8394 9.74791 16.8404L9.27091 16.8394C8.88491 16.8384 8.49791 16.8384 8.11391 16.8414ZM8.16991 14.2178H8.16091C7.82891 14.2178 7.52391 14.1578 7.51791 13.7398C7.51491 13.5908 7.55491 13.4738 7.63491 13.3928C7.76591 13.2598 7.98291 13.2428 8.15691 13.2428C10.6672 13.2438 13.1755 13.2428 15.6848 13.2418L15.6899 13.2418C15.9819 13.2418 16.2859 13.2968 16.3239 13.7028C16.3359 13.8418 16.3029 13.9558 16.2249 14.0428C16.1209 14.1558 15.9459 14.2138 15.7029 14.2148C14.7959 14.2168 13.8899 14.2168 12.9829 14.2158L10.9229 14.2148L10.4641 14.2147C9.69928 14.2146 8.93494 14.2145 8.16991 14.2178ZM8.07251 8.96679H8.07651H8.19851H11.9245L13.2065 8.96579H15.7725C16.2075 8.96579 16.3115 8.71779 16.3215 8.51079C16.3325 8.28979 16.2485 8.02079 15.7845 7.99379C15.7469 7.99139 15.7086 7.99155 15.6707 7.99171L15.6425 7.99179L15.5775 7.99279C13.7765 7.99279 11.9755 7.99279 10.1745 7.99379L9.61751 7.99279C9.41318 7.99319 9.20901 7.99327 9.00493 7.99335H9.00486C8.6986 7.99347 8.39256 7.99359 8.08651 7.99479C7.61651 7.99779 7.51651 8.25879 7.51551 8.47679C7.51451 8.62579 7.55651 8.74179 7.63851 8.82479C7.73251 8.91879 7.87851 8.96679 8.07251 8.96679ZM8.16891 11.5923H8.15991C7.82791 11.5923 7.52191 11.5323 7.51791 11.1143C7.51591 10.9663 7.55591 10.8483 7.63691 10.7673C7.76891 10.6343 7.98391 10.6163 8.15791 10.6163L10.6679 10.6173C11.5049 10.6173 12.3419 10.6175 13.1789 10.6178C14.0159 10.618 14.8529 10.6183 15.6899 10.6183C15.8609 10.6183 16.0739 10.6353 16.2039 10.7693C16.2849 10.8523 16.3239 10.9713 16.3199 11.1233C16.3099 11.5373 15.9899 11.5923 15.7079 11.5923H15.7019C14.7699 11.5893 13.8419 11.5883 12.9099 11.5913L10.8599 11.5903C10.501 11.5907 10.1422 11.5908 9.78331 11.5908C9.24518 11.591 8.70704 11.5911 8.16891 11.5923Z" fill="#797A8A"/>
</svg>
