<svg width="30" height="25" viewBox="0 0 30 25" fill="none" xmlns="http://www.w3.org/2000/svg">
<path opacity="0.1" fill-rule="evenodd" clip-rule="evenodd" d="M12.7434 9.75936C12.7434 16.4439 9.42478 21.6578 2.38938 25L0 20.0535C4.24779 18.1818 6.37168 15.5749 6.37168 11.5642C6.17257 11.631 5.90708 11.631 5.70796 11.631C2.52212 11.631 0 9.49198 0 6.14973C0 2.40642 2.38938 0 5.70796 0C10.354 0 12.7434 3.60963 12.7434 9.75936ZM30 9.75936C30 16.4439 26.6814 21.6578 19.646 25L17.2566 20.0535C21.5044 18.1818 23.6283 15.5749 23.6283 11.5642C23.4292 11.631 23.1637 11.631 22.9646 11.631C19.7788 11.631 17.2566 9.49198 17.2566 6.14973C17.2566 2.40642 19.646 0 22.9646 0C27.6106 0 30 3.60963 30 9.75936Z" fill="#2C3E50"/>
</svg>
