<?xml version="1.0" encoding="utf-8"?><svg viewBox="0 0 175 128" xmlns="http://www.w3.org/2000/svg" xmlns:xlink="http://www.w3.org/1999/xlink"><style>:root>svg{display:none}:root>svg:target{display:block}</style><svg viewBox="0 0 21 15" fill="none" id="arrow-link"><path fill-rule="evenodd" clip-rule="evenodd" d="M13.486 0l-.707.707 6.013 6.013H0v1.001h18.792l-6.013 6.013.707.707 7.221-7.22L13.486 0z" fill="#2C3E50"/></svg><svg viewBox="0 0 21 15" fill="#2F3794" id="arrow-link--accent"><path fill-rule="evenodd" clip-rule="evenodd" d="M13.486 0l-.707.707 6.013 6.013H0v1.001h18.792l-6.013 6.013.707.707 7.221-7.22L13.486 0z"/></svg><svg viewBox="0 0 80 9" fill="#fff" id="arrow-right"><path d="M79.354 4.854a.5.5 0 000-.708L76.172.964a.5.5 0 10-.707.708L78.293 4.5l-2.829 2.828a.5.5 0 10.708.708l3.182-3.182zM-2 5h81V4H-2v1z"/></svg><svg viewBox="0 0 17 20" fill="none" id="basket"><mask id="da" maskUnits="userSpaceOnUse" x="0" y="-1" width="17" height="21"><path fill-rule="evenodd" clip-rule="evenodd" d="M0 0h16.19v19.26H0V0z" fill="#fff"/></mask><g mask="url(#da)"><path fill-rule="evenodd" clip-rule="evenodd" d="M4.819 6.808h6.568V5.575H4.819v1.233zm6.579-2.261H4.799c-.057-1.335.459-2.357 1.534-3.038 1.167-.74 2.399-.732 3.564.02 1.048.677 1.553 1.692 1.501 3.018zm3.812 13.44c.009.108-.004.183-.038.22-.039.042-.126.063-.267.063h-.003c-3.225-.006-6.452-.006-9.677-.006l-3.87-.001c-.367 0-.367 0-.367-.376l.001-2.45c0-2.45.001-4.9-.005-7.35 0-.13.014-.204.045-.235.027-.026.087-.04.179-.04a40.983 40.983 0 002.302 0c.139-.001.239.013.274.052.042.045.042.153.034.236-.022.25-.017.497-.011.759.002.114.005.23.005.349v.13h.974V7.85h6.61V9.33h.987V9.2c0-.115.002-.231.004-.345a9.847 9.847 0 00-.01-.805c-.007-.1.004-.167.031-.195.029-.03.095-.044.221-.041.679.014 1.483.025 2.308-.001.118-.006.196.009.228.04.034.033.049.113.049.25-.009 2.278-.009 4.555-.008 6.832v2.41l-.002.189c-.003.148-.006.3.006.454zM13.579 5.886c.222.279.49.52.749.756.068.06.135.12.201.183h-2.115V5.566l.069-.005c.422-.033.787-.064 1.096.324zm-11.889.93c.081-.082.159-.165.237-.246.337-.352.655-.685 1.013-.948.132-.094.371-.092.609-.09.082 0 .163.002.241 0v1.285h-2.1zm14.495 6.966c-.001-2.083-.002-4.167-.012-6.25-.001-.26-.15-.536-.298-.695-.247-.265-.509-.523-.762-.773-.284-.28-.578-.57-.847-.868-.431-.475-.92-.677-1.509-.627-.1.008-.307.024-.339-.005-.029-.026-.032-.2-.036-.355C12.33 1.887 10.409 0 8.1 0h-.002C5.785 0 3.864 1.889 3.815 4.21c-.002.153-.006.327-.035.353-.032.029-.241.013-.342.005-.597-.053-1.079.153-1.507.629-.492.547-1.036 1.067-1.564 1.57l-.027.026c-.233.223-.337.474-.336.813.009 3.81.014 6.988-.004 10.28-.005.728.257 1.149.849 1.366l14.482.008.025-.011c.358-.155.834-.442.834-1.14-.004-1.443-.004-2.885-.005-4.328z" fill="#fff"/></g></svg><svg viewBox="0 0 24 24" fill="none" id="calendar"><path fill-rule="evenodd" clip-rule="evenodd" d="M21.424 11.507l.047.447c.026.202.038.305.038.41v7.877c0 .908-.357 1.261-1.272 1.261l-16.46.001c-.92 0-1.28-.352-1.28-1.257v-8.739h18.927zM2.507 6.48c.004-.233.1-.99 1.15-.99h.01c.91.004 1.82.004 2.731.003h1.063l12.75.001c.946 0 1.3.347 1.3 1.28v3.701H2.501l-.003-1.499c-.002-.84-.005-1.668.01-2.496zm-1.003.081c-.006 4.626-.006 9.252.002 13.878.002 1.23.836 2.055 2.075 2.056 5.58.006 11.16.005 16.74.001 1.405 0 2.18-.777 2.182-2.187.005-4.548.005-9.095 0-13.644-.003-1.377-.806-2.168-2.203-2.168l-2.792.001.001-1.1c.001-.429.001-.843-.002-1.257-.002-.237-.062-.424-.167-.527-.079-.077-.194-.11-.344-.113-.142.002-.475.006-.48.633-.003.415-.003.831-.002 1.252l.001 1.072H7.492v-2.27c-.002-.273-.06-.48-.167-.584-.027-.027-.088-.108-.338-.104-.132.002-.485.006-.488.674v2.324H5.217c-.25-.002-.498-.002-.744-.002-.299 0-.595 0-.89.003-1.242.01-2.077.838-2.079 2.062z" fill="#797A8A"/></svg><svg viewBox="0 0 14 10" fill="none" id="check"><path d="M1 4.547L5.291 9 13 1" stroke="#2F3794" stroke-width="2" stroke-linecap="round" stroke-linejoin="round"/></svg><svg viewBox="0 0 170 113" fill="none" id="decor"><path opacity=".2" fill-rule="evenodd" clip-rule="evenodd" d="M.692 70.264c-1.19 19.854 19.588 28.539 34.833 35.38l-2.06-.743c50.593 20.02 136.106-1.506 135.73-67.078-.749-17.652-13.661-35.426-31.212-37.22-26.975-2.367-44.136 26.528-68.745 32.321-28.601 2.797-73.61-7.1-68.546 37.34z" fill="#F3C9C1"/></svg><svg viewBox="0 0 175 128" fill="none" id="decor-ic"><path opacity=".2" fill-rule="evenodd" clip-rule="evenodd" d="M3.692 79.264c-1.19 19.854 19.588 28.539 34.833 35.38l-2.06-.743c50.593 20.02 136.106-1.506 135.73-67.078-.749-17.652-13.661-35.426-31.212-37.22-26.975-2.367-44.136 26.528-68.745 32.321-28.601 2.797-73.61-7.1-68.546 37.34z" fill="#F3C9C1"/></svg><svg viewBox="0 0 24 24" fill="none" id="list"><path fill-rule="evenodd" clip-rule="evenodd" d="M12.45 4.523H9.791c-.178 0-.304-.016-.381-.094-.061-.06-.09-.162-.09-.31.002-.363.176-.384.486-.39 1.077-.025 1.1-.045 1.248-1.09.052-.36.263-.574.627-.637.422-.075.778.081.922.403.045.1.074.218.084.346.078.921.1.978.941.978h.281c.226-.008.353.023.432.103.065.064.095.164.093.305-.006.322-.188.387-.5.387H12.45zm-2.677.965a824.761 824.761 0 004.177-.002c.121 0 .248-.014.375-.044.619-.144 1.124-.795 1.08-1.395-.046-.63-.63-1.21-1.275-1.266-.106-.008-.211-.014-.313-.02h-.023l-.097-.006C13.352 1.648 12.683 1 11.891 1c-.028 0-.058 0-.087.002-.865.051-1.537.723-1.758 1.756h-.01c-.046.003-.09.005-.134.005a2.966 2.966 0 00-.369.027c-.543.081-.922.403-1.16.983-.203.497.033.885.317 1.23.265.321.629.485 1.083.485zM19.84 8.836v2.293c-.001 2.19-.002 4.457.006 6.685 0 .352-.107.61-.361.858-.848.829-1.702 1.68-2.527 2.502l-.001.001-.016.017-.888.884-.013.014H4.26l-.01-.03a3.05 3.05 0 00-.09-.213l-.001-.004c-.073-.16-.148-.326-.148-.495C3.999 16.447 4 11.463 4 6.643V4.416c0-.695.097-.79.802-.792l.28.001h.001a144.007 144.007 0 001.81-.005h.018c.392 0 .594.161.599.478a.453.453 0 01-.118.34c-.102.104-.266.156-.488.156H5.002v16.523h2.587c2.499-.002 5.08-.003 7.62.008h.008A.995.995 0 0016 20.79c.418-.432.85-.864 1.27-1.284l.079-.079c.42-.42.856-.854 1.277-1.287.11-.113.23-.315.23-.491.01-3.84.009-7.743.007-11.519l-.001-1.396a.48.48 0 00-.011-.08l-.003-.013a2.32 2.32 0 01-.008-.048H17.1l-.094.003-.034.001c-.132.01-.271.017-.374-.045-.146-.088-.358-.297-.35-.468.008-.157.237-.432.402-.437a41.462 41.462 0 012.748-.01c.296.007.444.211.443.606a812.306 812.306 0 00-.001 3.122v1.47zM8.114 16.841H8.1c-.214 0-.366-.047-.463-.144a.465.465 0 01-.122-.347c.004-.484.46-.484.61-.484h3.19c.25 0 .416.05.52.154.08.082.12.197.119.342a.46.46 0 01-.126.337c-.128.124-.335.143-.492.143h-.037a46.51 46.51 0 00-.944-.003h-.113l-.494.001H9.27c-.386-.002-.773-.002-1.157.001zm.056-2.623h-.01c-.331 0-.636-.06-.642-.478-.003-.15.037-.266.117-.347.13-.133.348-.15.522-.15l7.528-.001h.005c.292 0 .596.055.634.46a.432.432 0 01-.1.34c-.103.114-.278.172-.521.173-.907.002-1.813.002-2.72 0h-2.519c-.765 0-1.53 0-2.294.003zm-.097-5.251h3.852l1.281-.001h2.567c.434 0 .538-.248.549-.455.01-.221-.073-.49-.537-.517a1.684 1.684 0 00-.114-.002h-.094c-1.8 0-3.601 0-5.402.002l-.557-.001h-.613c-.306 0-.612 0-.918.002-.47.003-.57.264-.571.482a.47.47 0 00.123.348c.094.094.24.142.434.142zm.096 2.625h-.01c-.331 0-.637-.06-.641-.478-.002-.148.038-.266.119-.347.132-.133.347-.15.52-.15h5.022l2.51.001c.172 0 .385.017.515.151.08.083.12.202.116.354-.01.414-.33.47-.612.47h-.006c-.932-.004-1.86-.005-2.792-.002H9.783l-1.614.001z" fill="#797A8A"/></svg><svg viewBox="0 0 30 25" fill="none" id="quote"><path opacity=".1" fill-rule="evenodd" clip-rule="evenodd" d="M12.743 9.76c0 6.684-3.318 11.898-10.354 15.24L0 20.053c4.248-1.871 6.372-4.478 6.372-8.489-.2.067-.465.067-.664.067C2.522 11.631 0 9.492 0 6.15 0 2.406 2.39 0 5.708 0c4.646 0 7.035 3.61 7.035 9.76zM30 9.76c0 6.684-3.319 11.898-10.354 15.24l-2.39-4.947c4.248-1.871 6.372-4.478 6.372-8.489-.199.067-.464.067-.663.067-3.186 0-5.708-2.139-5.708-5.481 0-3.744 2.389-6.15 5.708-6.15C27.61 0 30 3.61 30 9.76z" fill="#2C3E50"/></svg><svg viewBox="0 0 30 25" fill="none" id="quote-rotate"><path opacity=".1" fill-rule="evenodd" clip-rule="evenodd" d="M17.257 15.24c0-6.684 3.318-11.898 10.354-15.24L30 4.947c-4.248 1.871-6.372 4.478-6.372 8.489.2-.067.465-.067.664-.067 3.186 0 5.708 2.139 5.708 5.481 0 3.744-2.39 6.15-5.708 6.15-4.646 0-7.035-3.61-7.035-9.76zM0 15.24C0 8.557 3.319 3.343 10.354 0l2.39 4.947c-4.248 1.871-6.372 4.478-6.372 8.489.199-.067.464-.067.663-.067 3.186 0 5.708 2.139 5.708 5.481 0 3.744-2.389 6.15-5.708 6.15C2.39 25 0 21.39 0 15.24z" fill="#2C3E50"/></svg></svg>