<svg width="17" height="20" viewBox="0 0 17 20" fill="none" xmlns="http://www.w3.org/2000/svg">
<mask id="mask0" mask-type="alpha" maskUnits="userSpaceOnUse" x="0" y="-1" width="17" height="21">
<path fill-rule="evenodd" clip-rule="evenodd" d="M0 -0.000213623H16.19V19.2598H0V-0.000213623Z" fill="white"/>
</mask>
<g mask="url(#mask0)">
<path fill-rule="evenodd" clip-rule="evenodd" d="M4.81902 6.80779H11.387V5.57479H4.81902V6.80779ZM11.398 4.54679H4.79902C4.74202 3.21179 5.25802 2.18979 6.33302 1.50879C7.50002 0.769786 8.73202 0.776786 9.89702 1.52979C10.945 2.20579 11.45 3.22079 11.398 4.54679ZM15.21 17.9878C15.219 18.0948 15.206 18.1698 15.172 18.2068C15.133 18.2488 15.046 18.2698 14.905 18.2698H14.902C11.677 18.2638 8.45002 18.2638 5.22502 18.2638L1.35502 18.2628C0.988016 18.2628 0.988016 18.2628 0.988016 17.8868L0.989016 15.4378C0.989016 12.9878 0.990016 10.5378 0.984016 8.08779C0.984016 7.95679 0.998016 7.88279 1.02902 7.85179C1.05602 7.82579 1.11602 7.81279 1.20802 7.81279C1.21802 7.81279 1.22802 7.81279 1.23802 7.81379C1.96502 7.83479 2.70602 7.83379 3.51002 7.81279C3.64902 7.81079 3.74902 7.82479 3.78402 7.86379C3.82602 7.90879 3.82602 8.01679 3.81802 8.09979C3.79602 8.34979 3.80102 8.59679 3.80702 8.85879C3.80902 8.97279 3.81202 9.08879 3.81202 9.20779V9.33779H4.78602V7.85079H11.396V9.32979H12.383V9.19979C12.383 9.08479 12.385 8.96879 12.387 8.85479C12.391 8.59079 12.395 8.31779 12.377 8.04979C12.37 7.94979 12.381 7.88279 12.408 7.85479C12.437 7.82479 12.503 7.81079 12.629 7.81379C13.308 7.82779 14.112 7.83879 14.937 7.81279C15.055 7.80679 15.133 7.82179 15.165 7.85379C15.199 7.88579 15.214 7.96579 15.214 8.10279C15.205 10.3808 15.205 12.6578 15.206 14.9348V17.3458C15.206 17.4088 15.205 17.4718 15.204 17.5338C15.201 17.6818 15.198 17.8348 15.21 17.9878ZM13.579 5.88479C13.801 6.16379 14.069 6.40579 14.328 6.64079C14.396 6.70179 14.463 6.76179 14.529 6.82379H12.414V5.56579C12.438 5.56479 12.46 5.56279 12.483 5.56079C12.905 5.52779 13.27 5.49679 13.579 5.88479ZM1.69002 6.81579C1.77102 6.73279 1.84902 6.64979 1.92702 6.56879C2.26402 6.21679 2.58202 5.88379 2.94002 5.62079C3.07202 5.52679 3.31102 5.52879 3.54902 5.53079C3.63102 5.53079 3.71202 5.53279 3.79002 5.53079V6.81579H1.69002ZM16.185 13.7808C16.184 11.6978 16.183 9.61379 16.173 7.53079C16.172 7.27079 16.023 6.99479 15.875 6.83579C15.628 6.57079 15.366 6.31279 15.113 6.06279C14.829 5.78279 14.535 5.49379 14.266 5.19479C13.835 4.71979 13.346 4.51779 12.757 4.56779C12.657 4.57579 12.45 4.59179 12.418 4.56279C12.389 4.53679 12.386 4.36279 12.382 4.20779C12.33 1.88679 10.409 -0.000213623 8.10002 -0.000213623H8.09802C5.78502 0.000786377 3.86402 1.88879 3.81502 4.20979C3.81302 4.36279 3.80902 4.53679 3.78002 4.56279C3.74802 4.59179 3.53902 4.57579 3.43802 4.56779C2.84102 4.51479 2.35902 4.72079 1.93102 5.19679C1.43902 5.74379 0.895016 6.26379 0.367016 6.76679L0.340016 6.79279C0.107016 7.01579 0.00301634 7.26679 0.00401634 7.60579C0.0130163 11.4168 0.0180163 14.5938 1.63385e-05 17.8858C-0.00498366 18.6138 0.257016 19.0348 0.849016 19.2518L15.331 19.2598L15.356 19.2488C15.714 19.0938 16.19 18.8068 16.19 18.1088C16.186 16.6658 16.186 15.2238 16.185 13.7808Z" fill="white"/>
</g>
</svg>
