<svg width="24" height="24" viewBox="0 0 24 24" fill="none" xmlns="http://www.w3.org/2000/svg">
<path fill-rule="evenodd" clip-rule="evenodd" d="M21.4243 11.5071L21.4713 11.9541C21.4973 12.1561 21.5093 12.2591 21.5093 12.3631L21.5083 20.2411C21.5083 21.1491 21.1523 21.5021 20.2373 21.5021L3.77628 21.5031C2.85628 21.5031 2.49728 21.1511 2.49728 20.2461L2.49628 11.5071H21.4243ZM2.50728 6.48014C2.51128 6.24714 2.60628 5.49014 3.65728 5.49014H3.66628C4.57628 5.49414 5.48628 5.49414 6.39828 5.49314L7.46128 5.49214L20.2103 5.49414C21.1573 5.49414 21.5103 5.84114 21.5103 6.77414L21.5113 10.4751H2.50028L2.49828 8.97614C2.49628 8.13614 2.49328 7.30814 2.50728 6.48014ZM1.50428 6.56114C1.49828 11.1871 1.49828 15.8131 1.50628 20.4391C1.50828 21.6681 2.34228 22.4941 3.58128 22.4951C9.16128 22.5011 14.7403 22.5001 20.3203 22.4961C21.7263 22.4951 22.5003 21.7191 22.5033 20.3091C22.5083 15.7611 22.5083 11.2141 22.5023 6.66514C22.5003 5.28814 21.6973 4.49714 20.3003 4.49714H20.2993L17.5083 4.49814L17.5093 3.39814C17.5103 2.96914 17.5103 2.55514 17.5073 2.14114C17.5053 1.90414 17.4453 1.71714 17.3403 1.61414C17.2613 1.53714 17.1463 1.50414 16.9963 1.50114C16.8543 1.50314 16.5213 1.50714 16.5163 2.13414C16.5133 2.54914 16.5133 2.96514 16.5143 3.38614L16.5153 4.45814H7.49228L7.49128 2.18814C7.49028 1.91514 7.43128 1.70814 7.32528 1.60414C7.29828 1.57714 7.23728 1.49614 6.98728 1.50014C6.85528 1.50214 6.50228 1.50614 6.49928 2.17414L6.49828 3.40514L6.49928 4.49814L5.21728 4.49714C4.96628 4.49614 4.71928 4.49614 4.47328 4.49614C4.17428 4.49614 3.87828 4.49614 3.58228 4.49914C2.34128 4.50814 1.50628 5.33714 1.50428 6.56114Z" fill="#797A8A"/>
</svg>
