<svg width="30" height="25" viewBox="0 0 30 25" fill="none" xmlns="http://www.w3.org/2000/svg">
<path opacity="0.1" fill-rule="evenodd" clip-rule="evenodd" d="M17.2566 15.2406C17.2566 8.55615 20.5752 3.34225 27.6106 0L30 4.94652C25.7522 6.81818 23.6283 9.42513 23.6283 13.4358C23.8274 13.369 24.0929 13.369 24.292 13.369C27.4779 13.369 30 15.508 30 18.8503C30 22.5936 27.6106 25 24.292 25C19.646 25 17.2566 21.3904 17.2566 15.2406ZM0 15.2406C0 8.55615 3.31858 3.34225 10.354 0L12.7434 4.94652C8.49557 6.81818 6.37168 9.42513 6.37168 13.4358C6.5708 13.369 6.83628 13.369 7.0354 13.369C10.2212 13.369 12.7434 15.508 12.7434 18.8503C12.7434 22.5936 10.354 25 7.0354 25C2.38938 25 0 21.3904 0 15.2406Z" fill="#2C3E50"/>
</svg>
