<?xml version="1.0" encoding="utf-8"?><svg viewBox="0 0 17 20" xmlns="http://www.w3.org/2000/svg" xmlns:xlink="http://www.w3.org/1999/xlink"><style>:root>svg{display:none}:root>svg:target{display:block}</style><svg fill="none" viewBox="0 0 17 20" id="basket" xmlns="http://www.w3.org/2000/svg"><mask id="aa" maskUnits="userSpaceOnUse" x="0" y="-1" width="17" height="21"><path fill-rule="evenodd" clip-rule="evenodd" d="M0 0h16.19v19.26H0V0z" fill="#fff"/></mask><g mask="url(#aa)"><path fill-rule="evenodd" clip-rule="evenodd" d="M4.819 6.808h6.568V5.575H4.819v1.233zm6.579-2.261H4.799c-.057-1.335.459-2.357 1.534-3.038 1.167-.74 2.399-.732 3.564.02 1.048.677 1.553 1.692 1.501 3.018zm3.812 13.44c.009.108-.004.183-.038.22-.039.042-.126.063-.267.063h-.003c-3.225-.006-6.452-.006-9.677-.006l-3.87-.001c-.367 0-.367 0-.367-.376l.001-2.45c0-2.45.001-4.9-.005-7.35 0-.13.014-.204.045-.235.027-.026.087-.04.179-.04a40.983 40.983 0 002.302 0c.139-.001.239.013.274.052.042.045.042.153.034.236-.022.25-.017.497-.011.759.002.114.005.23.005.349v.13h.974V7.85h6.61V9.33h.987V9.2c0-.115.002-.231.004-.345a9.847 9.847 0 00-.01-.805c-.007-.1.004-.167.031-.195.029-.03.095-.044.221-.041.679.014 1.483.025 2.308-.001.118-.006.196.009.228.04.034.033.049.113.049.25-.009 2.278-.009 4.555-.008 6.832v2.41l-.002.189c-.003.148-.006.3.006.454zM13.579 5.886c.222.279.49.52.749.756.068.06.135.12.201.183h-2.115V5.566l.069-.005c.422-.033.787-.064 1.096.324zm-11.889.93c.081-.082.159-.165.237-.246.337-.352.655-.685 1.013-.948.132-.094.371-.092.609-.09.082 0 .163.002.241 0v1.285h-2.1zm14.495 6.966c-.001-2.083-.002-4.167-.012-6.25-.001-.26-.15-.536-.298-.695-.247-.265-.509-.523-.762-.773-.284-.28-.578-.57-.847-.868-.431-.475-.92-.677-1.509-.627-.1.008-.307.024-.339-.005-.029-.026-.032-.2-.036-.355C12.33 1.887 10.409 0 8.1 0h-.002C5.785 0 3.864 1.889 3.815 4.21c-.002.153-.006.327-.035.353-.032.029-.241.013-.342.005-.597-.053-1.079.153-1.507.629-.492.547-1.036 1.067-1.564 1.57l-.027.026c-.233.223-.337.474-.336.813.009 3.81.014 6.988-.004 10.28-.005.728.257 1.149.849 1.366l14.482.008.025-.011c.358-.155.834-.442.834-1.14-.004-1.443-.004-2.885-.005-4.328z" fill="#fff"/></g></svg><svg viewBox="0 0 13 16" id="play" xmlns="http://www.w3.org/2000/svg"><path d="M0 0v16l13.203-8zm0 0" fill-rule="evenodd" fill="#2f3794"/></svg></svg>